<svg width="32" height="32" viewBox="0 0 32 32" fill="none" xmlns="http://www.w3.org/2000/svg">
  <!-- Background circle -->
  <circle cx="16" cy="16" r="15" fill="#0f0f0f" stroke="#64ffda" stroke-width="2"/>
  
  <!-- Letter D -->
  <path d="M8 10 L8 22 L14 22 C17.5 22 20 19.5 20 16 C20 12.5 17.5 10 14 10 L8 10 Z M10 12 L14 12 C16.2 12 18 13.8 18 16 C18 18.2 16.2 20 14 20 L10 20 L10 12 Z" fill="#64ffda"/>
  
  <!-- Code brackets -->
  <path d="M22 12 L24 12 L26 14 L26 16 L24 18 L22 18" stroke="#a78bfa" stroke-width="1.5" fill="none" stroke-linecap="round" stroke-linejoin="round"/>
  <path d="M4 12 L6 12 L8 14 L8 16 L6 18 L4 18" stroke="#a78bfa" stroke-width="1.5" fill="none" stroke-linecap="round" stroke-linejoin="round"/>
</svg>
